<?xml version="1.0" encoding="utf-8"?>
<!-- Generator: Adobe Illustrator 16.0.0, SVG Export Plug-In . SVG Version: 6.00 Build 0)  -->
<!DOCTYPE svg PUBLIC "-//W3C//DTD SVG 1.1//EN" "http://www.w3.org/Graphics/SVG/1.1/DTD/svg11.dtd">
<svg version="1.1" id="Layer_1" xmlns="http://www.w3.org/2000/svg" xmlns:xlink="http://www.w3.org/1999/xlink" x="0px" y="0px"
	 width="260px" height="40px" viewBox="0.101 0.477 260 40" enable-background="new 0.101 0.477 260 40" xml:space="preserve">
<g>
	<path fill="#F04C23" d="M59.097,19.708c0,4.523-3.874,7.994-8.893,7.994h-2.603v6.228h-5.793V11.684h8.304
		C55.193,11.684,59.097,15.153,59.097,19.708 M53.395,18.81c0-1.395-0.837-1.921-3.067-1.921h-2.727v5.607h2.819
		c2.199,0,2.975-0.527,2.975-1.951V18.81z"/>
	<path fill="#F04C23" d="M59.883,22.806c0-6.537,4.679-11.433,10.906-11.433c6.228,0,10.907,4.896,10.907,11.433
		c0,6.538-4.679,11.432-10.907,11.432S59.883,29.344,59.883,22.806 M75.778,23.859v-2.137c0-3.532-1.519-5.081-4.989-5.081
		c-3.471,0-4.957,1.519-4.957,5.081v2.137c0,3.562,1.486,5.113,4.957,5.113C74.259,28.972,75.778,27.423,75.778,23.859"/>
	<polygon fill="#F04C23" points="82.427,11.684 88.16,11.684 89.492,28.724 91.04,28.724 93.023,11.684 102.597,11.684 
		104.517,28.724 106.068,28.724 107.461,11.684 113.131,11.684 110.652,33.93 99.903,33.93 98.23,16.889 97.299,16.889 
		95.595,33.93 84.844,33.93 	"/>
	<polygon fill="#F04C23" points="115.096,11.684 130.093,11.684 130.093,16.889 120.829,16.889 120.829,19.894 129.162,19.894 
		129.162,25.068 120.829,25.068 120.829,28.724 130.278,28.724 130.278,33.93 115.096,33.93 	"/>
	<path fill="#F04C23" d="M140.878,26.587h-2.262v7.343h-5.794V11.684h8.984c4.988,0,8.738,3.191,8.738,7.468
		c0,2.694-1.611,4.925-4.214,6.226l4.772,8.552h-6.6L140.878,26.587z M138.615,21.537h3.408c1.859,0,2.696-0.621,2.696-2.014v-0.774
		c0-1.363-0.867-1.983-2.696-1.983h-3.408V21.537z"/>
	<polygon fill="#F04C23" points="152.825,11.684 158.619,11.684 158.619,19.894 165.961,19.894 165.961,11.684 171.755,11.684 
		171.755,33.93 165.961,33.93 165.961,25.068 158.619,25.068 158.619,33.93 152.825,33.93 	"/>
	<path fill="#F04C23" d="M173.711,22.806c0-6.537,4.678-11.433,10.905-11.433c6.228,0,10.906,4.896,10.906,11.433
		c0,6.538-4.679,11.432-10.906,11.432C178.389,34.238,173.711,29.344,173.711,22.806 M189.605,23.859v-2.137
		c0-3.532-1.518-5.081-4.989-5.081c-3.469,0-4.957,1.519-4.957,5.081v2.137c0,3.562,1.488,5.113,4.957,5.113
		C188.087,28.972,189.605,27.423,189.605,23.859"/>
	<path fill="#F04C23" d="M197.206,24.975V11.684H203v14.839c0,1.891,0.898,2.572,3.347,2.572c2.416,0,3.223-0.62,3.223-2.572V11.684
		h5.793v13.292c0,5.607-3.562,9.263-9.016,9.263C200.8,34.238,197.206,30.614,197.206,24.975"/>
	<path fill="#F04C23" d="M216.93,25.812h5.794c-0.062,2.819,0.836,3.687,3.872,3.687c2.199,0,3.284-0.62,3.284-1.797v-0.464
		c0-0.775-0.465-1.24-1.425-1.396l-4.029-0.711c-4.152-0.745-6.816-3.253-6.816-6.414c0-4.027,3.998-7.344,8.769-7.344
		c4.863,0,8.77,3.439,9.017,7.809h-5.794c0.062-2.355-0.807-3.067-3.408-3.067c-1.983,0-2.913,0.589-2.913,1.735v0.434
		c0,0.775,0.466,1.271,1.426,1.457l4.306,0.806c4.433,0.835,6.724,2.974,6.724,6.258c0,4.028-4.306,7.435-9.325,7.435
		C220.958,34.238,216.96,30.583,216.93,25.812"/>
	<polygon fill="#F04C23" points="237.726,11.684 252.721,11.684 252.721,16.889 243.459,16.889 243.459,19.894 251.794,19.894 
		251.794,25.068 243.459,25.068 243.459,28.724 252.907,28.724 252.907,33.93 237.726,33.93 	"/>
	<path fill="#F04C23" d="M24.762,25.247l-9.218,9.258l4.517-0.002c2.81-2.832,6.01-6.057,7.667-7.725l0,0l1.09-1.227
		c1.221-1.374,1.894-3.143,1.894-4.983c0-4.137-3.366-7.501-7.501-7.501c-4.135,0-7.5,3.365-7.5,7.502
		c0,1.501,0.438,2.933,1.253,4.151l-2.014,2.023c-1.331-1.773-2.049-3.917-2.049-6.174c0-5.686,4.625-10.312,10.311-10.312
		c5.687,0,10.312,4.625,10.312,10.312c0,2.529-0.925,4.96-2.604,6.849l-1.896,1.909c-1.502,1.514-3.572,3.602-5.136,5.178h4.479
		l3.776-3.803l1.091-1.227c2.184-2.455,3.385-5.618,3.385-8.906c0-7.393-6.014-13.406-13.407-13.406
		c-7.392,0-13.406,6.014-13.406,13.406c0,3.089,1.038,6.012,2.946,8.383l-5.528,5.553h4.368
		c4.288-4.309,12.492-12.551,15.646-15.717c0.242,0.544,0.38,1.147,0.38,1.782c0,1.081-0.395,2.12-1.112,2.927L24.762,25.247z
		 M23.211,16.163c0.664,0,1.292,0.152,1.857,0.417l-5.84,5.866c-0.273-0.579-0.423-1.215-0.423-1.876
		C18.805,18.139,20.782,16.163,23.211,16.163"/>
</g>
</svg>
